<svg width="33" height="24" viewBox="0 0 33 24" fill="none" xmlns="http://www.w3.org/2000/svg">
<g clip-path="url(#clip0_107_119)">
<path d="M31.8778 19.9819C31.5067 21.3734 30.4133 22.4693 29.0251 22.8413C26.5088 23.5171 16.4188 23.5171 16.4188 23.5171C16.4188 23.5171 6.3289 23.5171 3.81257 22.8413C2.42433 22.4693 1.33097 21.3734 0.959881 19.9819C0.285645 17.4596 0.285645 12.1971 0.285645 12.1971C0.285645 12.1971 0.285645 6.93466 0.959881 4.4124C1.33097 3.02085 2.42433 1.97057 3.81257 1.59865C6.3289 0.92282 16.4188 0.922822 16.4188 0.922822C16.4188 0.922822 26.5087 0.92282 29.0251 1.59865C30.4133 1.97057 31.5067 3.02085 31.8778 4.4124C32.552 6.93466 32.552 12.1971 32.552 12.1971C32.552 12.1971 32.552 17.4596 31.8778 19.9819ZM13.1188 7.4192V16.975L21.552 12.197L13.1188 7.4192Z" fill="black"/>
</g>
<defs>
<clipPath id="clip0_107_119">
<rect width="32.2663" height="22.5943" fill="white" transform="matrix(1 0 0 -1 0.285645 23.5171)"/>
</clipPath>
</defs>
</svg>
