<svg width="35" height="27" viewBox="0 0 35 27" fill="none" xmlns="http://www.w3.org/2000/svg">
<g clip-path="url(#clip0_107_123)">
<path d="M5.93763 2.26632C5.94713 2.24768 5.96288 2.23308 5.98205 2.22513C8.1988 1.19595 10.5381 0.462065 12.9414 0.0418392C12.9633 0.0377315 12.9858 0.0406948 13.0059 0.0503076C13.026 0.0599204 13.0426 0.0756931 13.0533 0.0953829C13.3718 0.680415 13.661 1.28134 13.9196 1.89586C16.5103 1.49792 19.1455 1.49792 21.7361 1.89586C21.9965 1.27978 22.2903 0.678705 22.6162 0.0953829C22.6274 0.0761211 22.644 0.0607115 22.664 0.0511612C22.6839 0.0416109 22.7062 0.0383625 22.7281 0.0418392C25.1316 0.461182 27.4711 1.19512 29.6876 2.22519C29.7065 2.23333 29.7225 2.24722 29.7334 2.26496C34.1659 8.96311 35.3801 15.4966 34.7844 21.9491C34.7828 21.9649 34.778 21.9802 34.7703 21.9941C34.7627 22.008 34.7523 22.0202 34.7399 22.03C32.159 23.9638 29.2721 25.4399 26.2025 26.3952C26.1809 26.4018 26.1578 26.4015 26.1364 26.3944C26.1149 26.3873 26.0961 26.3737 26.0826 26.3555C25.4233 25.4477 24.8391 24.4865 24.336 23.4816C24.3291 23.4678 24.3251 23.4527 24.3244 23.4373C24.3237 23.4218 24.3262 23.4064 24.3318 23.392C24.3374 23.3776 24.346 23.3646 24.3569 23.3538C24.3678 23.343 24.3809 23.3347 24.3952 23.3294C25.3164 22.9727 26.2083 22.5427 27.0623 22.0435C27.0778 22.0343 27.0909 22.0214 27.1003 22.0058C27.1097 21.9903 27.1151 21.9727 27.1162 21.9545C27.1173 21.9363 27.1139 21.9181 27.1064 21.9016C27.0988 21.885 27.0874 21.8706 27.0731 21.8596C26.8934 21.7238 26.7168 21.5837 26.5434 21.4397C26.5282 21.427 26.5098 21.4189 26.4903 21.4162C26.4708 21.4136 26.4509 21.4165 26.4329 21.4246C20.8375 24.0087 14.7797 24.0087 9.2505 21.4246C9.23248 21.4159 9.2124 21.4126 9.1926 21.4151C9.17279 21.4175 9.15408 21.4256 9.13862 21.4383C8.96509 21.5832 8.78803 21.7236 8.60762 21.8596C8.59322 21.8705 8.58169 21.8848 8.57405 21.9013C8.56641 21.9178 8.5629 21.9359 8.56383 21.9541C8.56476 21.9723 8.57011 21.99 8.57939 22.0056C8.58867 22.0212 8.6016 22.0342 8.61705 22.0435C9.46918 22.5469 10.3618 22.9766 11.2854 23.328C11.2998 23.3335 11.3128 23.342 11.3236 23.353C11.3345 23.364 11.343 23.3771 11.3484 23.3917C11.3539 23.4062 11.3563 23.4217 11.3555 23.4372C11.3547 23.4527 11.3506 23.4678 11.3436 23.4816C10.832 24.4809 10.2487 25.4409 9.59833 26.3539C9.58513 26.3726 9.56645 26.3866 9.54492 26.394C9.52339 26.4014 9.50011 26.4018 9.47838 26.3951C6.40331 25.4429 3.51139 23.9667 0.927155 22.03C0.914574 22.0207 0.904095 22.0088 0.896423 21.9951C0.888752 21.9814 0.884064 21.9662 0.882671 21.9505C0.169556 14.4906 2.07655 8.01073 5.93763 2.26632ZM23.5004 18.0202C25.185 18.0202 26.5731 16.4558 26.5731 14.5346C26.5731 12.6134 25.2119 11.0489 23.5004 11.0489C21.7754 11.0489 20.4008 12.627 20.4277 14.5345C20.4277 16.4558 21.7889 18.0202 23.5004 18.0202ZM12.1396 18.0202C13.8242 18.0202 15.2123 16.4558 15.2123 14.5346C15.2123 12.6134 13.8511 11.0489 12.1396 11.0489C10.4145 11.0489 9.03995 12.627 9.06687 14.5345C9.06687 16.4558 10.4145 18.0202 12.1396 18.0202Z" fill="black"/>
</g>
<defs>
<clipPath id="clip0_107_123">
<rect width="34.1903" height="26.3599" fill="white" transform="matrix(-1 0 0 1 34.9257 0.0400391)"/>
</clipPath>
</defs>
</svg>
