<svg width="28" height="28" viewBox="0 0 28 28" fill="none" xmlns="http://www.w3.org/2000/svg">
<g clip-path="url(#clip0_107_121)">
<path d="M10.6283 6.51369C9.10432 6.51369 7.85928 5.25819 7.85928 3.72144C7.85928 2.1847 9.10432 0.929199 10.6283 0.929199C12.1522 0.929199 13.3972 2.1847 13.3972 3.72144V6.51369L10.6283 6.51369ZM10.6283 7.92108C12.1522 7.92108 13.3972 9.17658 13.3972 10.7133C13.3972 12.2501 12.1522 13.5056 10.6283 13.5056L3.69464 13.5056C2.1707 13.5056 0.925665 12.2501 0.925665 10.7133C0.925665 9.17658 2.1707 7.92108 3.69464 7.92108L10.6283 7.92108ZM21.7477 10.7133C21.7477 9.17658 22.9927 7.92108 24.5167 7.92108C26.0406 7.92108 27.2856 9.17658 27.2856 10.7133C27.2856 12.2501 26.0406 13.5056 24.5167 13.5056H21.7477V10.7133ZM20.352 10.7133C20.352 12.2501 19.107 13.5056 17.5831 13.5056C16.0591 13.5056 14.8141 12.2501 14.8141 10.7133L14.8141 3.72144C14.8141 2.1847 16.0591 0.929199 17.5831 0.929199C19.107 0.929199 20.352 2.1847 20.352 3.72144L20.352 10.7133ZM17.5831 21.9262C19.107 21.9262 20.352 23.1817 20.352 24.7184C20.352 26.2552 19.107 27.5107 17.5831 27.5107C16.0591 27.5107 14.8141 26.2552 14.8141 24.7184L14.8141 21.9262H17.5831ZM17.5831 20.5188C16.0591 20.5188 14.8141 19.2633 14.8141 17.7266C14.8141 16.1898 16.0591 14.9343 17.5831 14.9343L24.5167 14.9343C26.0406 14.9343 27.2856 16.1898 27.2856 17.7266C27.2856 19.2633 26.0406 20.5188 24.5167 20.5188L17.5831 20.5188ZM6.46361 17.7266C6.46361 19.2633 5.21858 20.5188 3.69464 20.5188C2.1707 20.5188 0.925665 19.2633 0.925665 17.7266C0.925665 16.1898 2.1707 14.9343 3.69464 14.9343L6.46361 14.9343L6.46361 17.7266ZM7.85928 17.7266C7.85928 16.1898 9.10432 14.9343 10.6283 14.9343C12.1522 14.9343 13.3972 16.1898 13.3972 17.7266L13.3972 24.7184C13.3972 26.2552 12.1522 27.5107 10.6283 27.5107C9.10432 27.5107 7.85928 26.2552 7.85928 24.7184L7.85928 17.7266Z" fill="black"/>
</g>
<defs>
<clipPath id="clip0_107_121">
<rect width="26.5815" height="26.36" fill="white" transform="translate(27.2856 0.929199) rotate(90)"/>
</clipPath>
</defs>
</svg>
