<svg width="31" height="31" viewBox="0 0 31 31" fill="none" xmlns="http://www.w3.org/2000/svg">
<g clip-path="url(#clip0_107_125)">
<path d="M8.05278 15.2169C8.05278 19.4937 11.4855 22.9433 15.7413 22.9433C19.9971 22.9433 23.4299 19.4937 23.4299 15.2169C23.4299 10.9401 19.9971 7.49046 15.7413 7.49046C11.4855 7.49046 8.05278 10.9401 8.05278 15.2169ZM20.7399 15.2169C20.7399 17.9807 18.4982 20.2401 15.7413 20.2401C12.9844 20.2401 10.7428 17.9874 10.7428 15.2169C10.7428 12.4464 12.9844 10.1937 15.7413 10.1937C18.4982 10.1937 20.7399 12.4531 20.7399 15.2169ZM7.73828 5.37225C8.73532 5.37225 9.53161 6.17919 9.53161 7.17441C9.53161 8.17636 8.72862 8.97658 7.73828 8.97658C6.74793 8.97658 5.94495 8.16964 5.94495 7.17441C5.94495 6.17919 6.74793 5.37225 7.73828 5.37225ZM9.55837 0.254921C7.15612 0.369238 5.02821 0.920645 3.27504 2.68918C1.52186 4.451 0.973153 6.58938 0.852706 9.00347C0.712184 11.4915 0.712184 18.949 0.852706 21.437C0.966462 23.8444 1.51517 25.9828 3.26834 27.7513C5.02152 29.5199 7.14943 30.0646 9.55168 30.1856C12.0275 30.3268 19.4484 30.3268 21.9243 30.1856C24.3266 30.0713 26.4545 29.5199 28.2076 27.7513C29.9608 25.9828 30.5095 23.8511 30.63 21.437C30.7705 18.949 30.7705 11.4915 30.63 9.00347C30.5162 6.58938 29.9675 4.451 28.2076 2.68918C26.4545 0.92737 24.3266 0.375961 21.9243 0.254921C19.4484 0.113707 12.0342 0.113707 9.55837 0.254921ZM24.5808 3.46922C25.8924 3.99373 26.9028 5.00913 27.4314 6.33385C28.2143 8.31757 28.0337 13.0247 28.0337 15.2169C28.0337 17.4091 28.2076 22.1229 27.4314 24.0999C26.9095 25.4179 25.8991 26.4333 24.5808 26.9646C22.6068 27.7513 17.9228 27.5698 15.7413 27.5698C13.5599 27.5698 8.86915 27.7446 6.90184 26.9646C5.5903 26.4401 4.57988 25.4247 4.05125 24.0999C3.26834 22.1162 3.44902 17.4091 3.44902 15.2169C3.44902 13.0247 3.27504 8.31085 4.05125 6.33385C4.57319 5.01585 5.58361 4.00046 6.90184 3.46922C8.87584 2.68246 13.5599 2.86402 15.7413 2.86402C17.9228 2.86402 22.6135 2.68246 24.5808 3.46922Z" fill="black"/>
</g>
<defs>
<clipPath id="clip0_107_125">
<rect width="30.1425" height="29.9881" fill="white" transform="translate(30.7354 0.148926) rotate(90)"/>
</clipPath>
</defs>
</svg>
