<svg width="193" height="195" viewBox="0 0 193 195" fill="none" xmlns="http://www.w3.org/2000/svg">
<g filter="url(#filter0_d_89_53)">
<path d="M177.825 22.7802C163.177 1.22962 134.266 -6.1368 110.806 6.54177C92.0025 16.7038 82.0586 36.847 83.9953 56.8301C68.3398 44.261 46.041 41.5427 27.239 51.7039C3.77708 64.3833 -5.9034 92.6056 4.1012 116.665C4.76727 118.268 5.52328 119.855 6.36719 121.416C36.0622 176.364 117.642 165.784 156.978 191.877C156.704 144.676 210.253 82.228 180.557 27.279C179.713 25.7174 178.801 24.2158 177.825 22.7802Z" fill="#56CCF2"/>
<path d="M83.0562 57.9997L85.8316 60.228L85.4883 56.6854C83.6079 37.2827 93.264 17.7271 111.519 7.86139C134.298 -4.44862 162.366 2.70465 176.584 23.6233L177.825 22.7802L176.584 23.6234C177.531 25.0165 178.418 26.4747 179.238 27.9922C193.764 54.8713 188.004 83.6738 178.381 112.001C175.979 119.07 173.348 126.083 170.744 133.016L170.691 133.158C168.108 140.034 165.555 146.835 163.302 153.492C159.109 165.882 155.916 177.895 155.519 189.176C145.864 183.327 134.065 179.416 121.403 176.134C114.598 174.371 107.508 172.781 100.34 171.173L100.196 171.14C92.9694 169.52 85.6612 167.879 78.432 166.014C49.4628 158.543 22.2126 147.581 7.68681 120.703C6.86675 119.186 6.1327 117.645 5.48639 116.09L5.48623 116.089C-4.22494 92.7353 5.17208 65.3345 27.9521 53.0235C46.2057 43.1587 67.8554 45.7957 83.0562 57.9997Z" stroke="black" stroke-width="3"/>
</g>
<defs>
<filter id="filter0_d_89_53" x="0.184814" y="0.327637" width="192.345" height="194.549" filterUnits="userSpaceOnUse" color-interpolation-filters="sRGB">
<feFlood flood-opacity="0" result="BackgroundImageFix"/>
<feColorMatrix in="SourceAlpha" type="matrix" values="0 0 0 0 0 0 0 0 0 0 0 0 0 0 0 0 0 0 127 0" result="hardAlpha"/>
<feOffset dx="3" dy="3"/>
<feComposite in2="hardAlpha" operator="out"/>
<feColorMatrix type="matrix" values="0 0 0 0 0 0 0 0 0 0 0 0 0 0 0 0 0 0 1 0"/>
<feBlend mode="normal" in2="BackgroundImageFix" result="effect1_dropShadow_89_53"/>
<feBlend mode="normal" in="SourceGraphic" in2="effect1_dropShadow_89_53" result="shape"/>
</filter>
</defs>
</svg>
