<svg width="228" height="234" viewBox="0 0 228 234" fill="none" xmlns="http://www.w3.org/2000/svg">
<g filter="url(#filter0_d_71_12)">
<path fill-rule="evenodd" clip-rule="evenodd" d="M217.372 154.651C195.7 214.059 129.973 244.649 70.5658 222.976C11.1588 201.304 -19.4314 135.577 2.24093 76.1695C23.9131 16.7626 89.6407 -13.8275 149.048 7.84471C208.455 29.517 239.045 95.2445 217.372 154.651ZM87.8082 86.6207C97.9288 90.3128 109.127 85.101 112.82 74.9795C116.512 64.8589 111.3 53.6604 101.179 49.9683C91.0578 46.2759 79.8594 51.4879 76.1673 61.6084C72.4749 71.73 77.6867 82.9283 87.8082 86.6207ZM145.176 107.549C155.297 111.241 166.496 106.03 170.188 95.9081C173.88 85.7875 168.669 74.589 158.547 70.8966C148.427 67.2045 137.228 72.4165 133.536 82.5371C129.844 92.6586 135.055 103.857 145.176 107.549ZM96.9417 153.15C72.2993 144.16 59.6099 116.895 68.5997 92.2528L49.4768 85.2765C36.6342 120.48 54.7618 159.431 89.9654 172.273C125.17 185.116 164.12 166.988 176.962 131.784L157.839 124.808C148.849 149.45 121.585 162.14 96.9417 153.15Z" fill="#FF94DC"/>
<path d="M70.0089 92.7668L70.5229 91.3577L69.1138 90.8436L49.9908 83.8674L48.5817 83.3533L48.0676 84.7625C34.9411 120.744 53.4694 160.556 89.4513 173.682C125.434 186.809 165.245 168.28 178.371 132.298L178.885 130.889L177.476 130.375L158.353 123.399L156.944 122.885L156.43 124.294C147.724 148.158 121.321 160.447 97.4558 151.741C73.5916 143.035 61.303 116.631 70.0089 92.7668ZM215.963 154.137C194.575 212.766 129.709 242.956 71.0798 221.567C12.4512 200.179 -17.7383 135.313 3.65009 76.6836C25.0383 18.0549 89.9049 -12.1344 148.534 9.25386C207.163 30.6423 237.352 95.5087 215.963 154.137ZM87.2941 88.0299C98.193 92.0059 110.252 86.3933 114.229 75.4936C118.205 64.5947 112.592 52.5351 101.693 48.5591C90.7936 44.5828 78.7341 50.1955 74.7581 61.0944C70.7818 71.9941 76.3943 84.0535 87.2941 88.0299ZM144.662 108.958C155.562 112.934 167.621 107.322 171.597 96.4222C175.573 85.5233 169.961 73.4637 159.061 69.4874C148.162 65.5114 136.103 71.1242 132.127 82.023C128.151 92.9227 133.763 104.982 144.662 108.958Z" stroke="black" stroke-width="3"/>
</g>
<defs>
<filter id="filter0_d_71_12" x="-4.72449" y="0.879395" width="232.062" height="233.062" filterUnits="userSpaceOnUse" color-interpolation-filters="sRGB">
<feFlood flood-opacity="0" result="BackgroundImageFix"/>
<feColorMatrix in="SourceAlpha" type="matrix" values="0 0 0 0 0 0 0 0 0 0 0 0 0 0 0 0 0 0 127 0" result="hardAlpha"/>
<feOffset dx="3" dy="4"/>
<feComposite in2="hardAlpha" operator="out"/>
<feColorMatrix type="matrix" values="0 0 0 0 0 0 0 0 0 0 0 0 0 0 0 0 0 0 1 0"/>
<feBlend mode="normal" in2="BackgroundImageFix" result="effect1_dropShadow_71_12"/>
<feBlend mode="normal" in="SourceGraphic" in2="effect1_dropShadow_71_12" result="shape"/>
</filter>
</defs>
</svg>
