<svg width="798" height="743" viewBox="0 0 798 743" fill="none" xmlns="http://www.w3.org/2000/svg">
<path d="M383.547 651.633C508.06 651.633 608.998 637.106 608.998 619.186C608.998 601.267 508.06 586.74 383.547 586.74C259.034 586.74 158.096 601.267 158.096 619.186C158.096 637.106 259.034 651.633 383.547 651.633Z" fill="#ADD2DA"/>
<path d="M249.027 553.848L247.852 556.215C247.108 557.711 247.807 559.487 249.411 560.18L310.236 586.469C311.84 587.162 313.744 586.511 314.487 585.014L315.663 582.648C316.406 581.151 315.708 579.376 314.103 578.682L253.279 552.394C251.674 551.7 249.771 552.352 249.027 553.848Z" fill="black"/>
<path d="M250.311 534.321L280.579 541.751L321.465 559.427L314.487 573.485C313.847 574.769 312.687 575.765 311.26 576.252C309.834 576.74 308.259 576.68 306.88 576.085L253.059 552.829L250.311 534.321Z" fill="white"/>
<path d="M309.278 578.054C308.219 578.055 307.172 577.839 306.211 577.422L251.601 553.832L248.415 532.285L281.264 540.376L323.584 558.736L315.929 574.146C315.333 575.319 314.391 576.31 313.213 577.002C312.035 577.694 310.67 578.059 309.278 578.054ZM254.524 551.819L307.55 574.74C308.044 574.957 308.58 575.081 309.127 575.103C309.673 575.126 310.218 575.047 310.732 574.872C311.245 574.696 311.716 574.427 312.117 574.081C312.519 573.734 312.842 573.317 313.07 572.853L319.386 560.14L280.037 543.133L252.214 536.305L254.524 551.819Z" fill="black"/>
<path d="M257.312 563.58L222.886 548.72C221.62 548.173 220.639 547.179 220.158 545.957C219.677 544.736 219.736 543.386 220.321 542.204C222.731 537.358 227.105 533.602 232.482 531.763C237.859 529.924 243.799 530.152 248.996 532.397C251.57 533.509 253.883 535.083 255.804 537.029C257.726 538.975 259.217 541.255 260.193 543.739C261.17 546.223 261.612 548.862 261.495 551.505C261.378 554.148 260.703 556.744 259.511 559.145L257.312 563.58Z" fill="black"/>
<path d="M528.269 250.309L510.61 251.312C502.541 251.77 494.608 249.219 488.556 244.221C482.503 239.223 478.826 232.187 478.334 224.661L477.339 209.348C477.123 206.035 477.609 202.715 478.77 199.577C479.93 196.44 481.742 193.547 484.102 191.063C486.461 188.578 489.323 186.553 492.522 185.1C495.722 183.648 499.197 182.799 502.748 182.6L516.512 181.82C526.472 181.263 536.261 184.417 543.728 190.588C551.196 196.76 555.732 205.445 556.339 214.734L556.705 220.381C557.189 227.867 554.465 235.226 549.132 240.839C543.799 246.451 536.295 249.858 528.269 250.309Z" fill="black"/>
<path d="M226.749 621.148C226.37 621.153 226.001 621.032 225.709 620.806C225.416 620.579 225.221 620.264 225.156 619.915L182.438 391.063L117.281 619.796C117.163 620.164 116.897 620.475 116.538 620.664C116.179 620.853 115.756 620.904 115.357 620.808C114.958 620.712 114.614 620.476 114.398 620.148C114.183 619.821 114.111 619.428 114.199 619.053L183.075 377.214L228.318 619.432C228.391 619.817 228.297 620.213 228.059 620.534C227.82 620.855 227.456 621.076 227.044 621.148C226.946 621.156 226.847 621.156 226.749 621.148Z" fill="black"/>
<path d="M474.877 363.453H152.305C148.438 363.453 145.304 366.377 145.304 369.984V377.607C145.304 381.214 148.438 384.138 152.305 384.138H474.877C478.744 384.138 481.879 381.214 481.879 377.607V369.984C481.879 366.377 478.744 363.453 474.877 363.453Z" fill="black"/>
<path d="M452.646 147.961H395.423C387.113 147.961 380.377 154.245 380.377 161.996C380.377 169.748 387.113 176.032 395.423 176.032H452.646C460.956 176.032 467.693 169.748 467.693 161.996C467.693 154.245 460.956 147.961 452.646 147.961Z" fill="white"/>
<path d="M452.654 177.51H395.423C393.208 177.555 391.005 177.187 388.945 176.428C386.884 175.668 385.006 174.533 383.423 173.087C381.839 171.642 380.58 169.916 379.721 168.011C378.862 166.105 378.42 164.059 378.42 161.993C378.42 159.926 378.862 157.88 379.721 155.974C380.58 154.069 381.839 152.343 383.423 150.898C385.006 149.453 386.884 148.317 388.945 147.557C391.005 146.798 393.208 146.43 395.423 146.475H452.654C454.869 146.43 457.072 146.798 459.133 147.557C461.194 148.317 463.071 149.453 464.655 150.898C466.239 152.343 467.497 154.069 468.356 155.974C469.215 157.88 469.658 159.926 469.658 161.993C469.658 164.059 469.215 166.105 468.356 168.011C467.497 169.916 466.239 171.642 464.655 173.087C463.071 174.533 461.194 175.668 459.133 176.428C457.072 177.187 454.869 177.555 452.654 177.51ZM395.423 149.447C393.629 149.406 391.845 149.701 390.175 150.313C388.505 150.925 386.983 151.843 385.699 153.012C384.415 154.181 383.395 155.577 382.698 157.12C382.001 158.662 381.642 160.319 381.642 161.993C381.642 163.666 382.001 165.323 382.698 166.865C383.395 168.408 384.415 169.805 385.699 170.974C386.983 172.143 388.505 173.06 390.175 173.672C391.845 174.284 393.629 174.579 395.423 174.538H452.654C454.448 174.579 456.232 174.284 457.902 173.672C459.572 173.06 461.094 172.143 462.378 170.974C463.662 169.805 464.683 168.408 465.379 166.865C466.076 165.323 466.435 163.666 466.435 161.993C466.435 160.319 466.076 158.662 465.379 157.12C464.683 155.577 463.662 154.181 462.378 153.012C461.094 151.843 459.572 150.925 457.902 150.313C456.232 149.701 454.448 149.406 452.654 149.447H395.423Z" fill="black"/>
<path d="M405.221 168.758L401.142 166.751C401.082 166.722 401.015 166.707 400.947 166.707C400.879 166.707 400.812 166.722 400.752 166.751L396.674 168.758C396.604 168.79 396.526 168.804 396.449 168.798C396.371 168.792 396.297 168.765 396.234 168.722C396.172 168.679 396.123 168.621 396.094 168.554C396.065 168.487 396.056 168.413 396.068 168.342L396.865 164.106C396.874 164.043 396.868 163.978 396.846 163.918C396.824 163.857 396.787 163.802 396.737 163.757L393.44 160.785C393.384 160.735 393.344 160.671 393.325 160.6C393.306 160.53 393.309 160.456 393.333 160.387C393.357 160.318 393.402 160.257 393.461 160.21C393.521 160.164 393.594 160.134 393.671 160.124L398.235 159.5C398.301 159.492 398.364 159.469 398.419 159.433C398.473 159.396 398.517 159.348 398.546 159.292L400.593 155.436C400.626 155.369 400.679 155.314 400.745 155.274C400.812 155.235 400.889 155.215 400.967 155.215C401.045 155.215 401.122 155.235 401.189 155.274C401.255 155.314 401.308 155.369 401.341 155.436L403.381 159.292C403.411 159.348 403.456 159.397 403.512 159.433C403.568 159.469 403.632 159.492 403.699 159.5L408.255 160.124C408.332 160.134 408.405 160.164 408.465 160.21C408.524 160.257 408.569 160.318 408.593 160.387C408.617 160.456 408.62 160.53 408.601 160.6C408.582 160.671 408.542 160.735 408.486 160.785L405.189 163.757C405.14 163.802 405.104 163.858 405.084 163.918C405.063 163.979 405.058 164.044 405.069 164.106L405.866 168.342C405.885 168.418 405.878 168.499 405.848 168.572C405.817 168.646 405.764 168.709 405.694 168.754C405.625 168.798 405.543 168.823 405.458 168.823C405.374 168.824 405.291 168.801 405.221 168.758Z" fill="#FFC1EB"/>
<path d="M428.312 168.758L424.234 166.751C424.174 166.722 424.107 166.707 424.039 166.707C423.971 166.707 423.904 166.722 423.844 166.751L419.765 168.758C419.695 168.792 419.617 168.808 419.538 168.802C419.459 168.797 419.383 168.771 419.319 168.728C419.256 168.685 419.206 168.625 419.176 168.557C419.147 168.489 419.138 168.414 419.152 168.342L419.948 164.106C419.961 164.044 419.957 163.979 419.936 163.918C419.915 163.857 419.878 163.802 419.829 163.757L416.531 160.785C416.475 160.735 416.436 160.671 416.417 160.6C416.398 160.53 416.401 160.456 416.425 160.387C416.449 160.318 416.493 160.257 416.553 160.21C416.613 160.164 416.685 160.134 416.762 160.124L421.326 159.5C421.393 159.492 421.456 159.469 421.51 159.433C421.565 159.396 421.608 159.348 421.637 159.292L423.676 155.436C423.711 155.37 423.765 155.314 423.832 155.276C423.899 155.237 423.976 155.216 424.055 155.216C424.133 155.216 424.21 155.237 424.277 155.276C424.344 155.314 424.398 155.37 424.433 155.436L426.472 159.292C426.501 159.348 426.545 159.396 426.599 159.433C426.653 159.469 426.716 159.492 426.783 159.5L431.347 160.124C431.424 160.134 431.497 160.164 431.556 160.21C431.616 160.257 431.66 160.318 431.685 160.387C431.709 160.456 431.711 160.53 431.693 160.6C431.674 160.671 431.634 160.735 431.578 160.785L428.28 163.757C428.231 163.802 428.194 163.857 428.173 163.918C428.152 163.979 428.148 164.044 428.161 164.106L428.957 168.342C428.976 168.418 428.97 168.499 428.939 168.572C428.909 168.646 428.855 168.709 428.786 168.754C428.716 168.798 428.634 168.823 428.55 168.823C428.465 168.824 428.382 168.801 428.312 168.758Z" fill="#FFC1EB"/>
<path d="M451.404 168.758L447.325 166.751C447.265 166.722 447.198 166.707 447.13 166.707C447.062 166.707 446.995 166.722 446.935 166.751L442.857 168.758C442.787 168.792 442.708 168.808 442.629 168.802C442.551 168.797 442.475 168.771 442.411 168.728C442.347 168.685 442.297 168.625 442.268 168.557C442.238 168.489 442.23 168.414 442.243 168.342L443.04 164.106C443.051 164.044 443.046 163.979 443.025 163.918C443.005 163.858 442.969 163.802 442.92 163.757L439.623 160.785C439.567 160.735 439.527 160.671 439.508 160.6C439.489 160.53 439.492 160.456 439.516 160.387C439.54 160.318 439.585 160.257 439.644 160.21C439.704 160.164 439.777 160.134 439.854 160.124L444.41 159.5C444.477 159.491 444.541 159.468 444.596 159.432C444.652 159.396 444.697 159.348 444.729 159.292L446.768 155.436C446.801 155.369 446.854 155.314 446.921 155.274C446.987 155.235 447.064 155.215 447.142 155.215C447.221 155.215 447.297 155.235 447.364 155.274C447.43 155.314 447.483 155.369 447.516 155.436L449.556 159.292C449.587 159.348 449.632 159.396 449.688 159.432C449.743 159.468 449.807 159.491 449.874 159.5L454.438 160.124C454.515 160.134 454.588 160.164 454.648 160.21C454.707 160.257 454.752 160.318 454.776 160.387C454.8 160.456 454.803 160.53 454.784 160.6C454.765 160.671 454.725 160.735 454.669 160.785L451.364 163.757C451.315 163.802 451.279 163.858 451.259 163.918C451.238 163.979 451.233 164.044 451.244 164.106L452.041 168.342C452.058 168.417 452.051 168.496 452.021 168.568C451.991 168.64 451.938 168.702 451.87 168.747C451.802 168.791 451.722 168.816 451.639 168.818C451.556 168.82 451.474 168.799 451.404 168.758Z" fill="#FFC1EB"/>
<path d="M412.636 190.669H209.918C201.463 190.669 194.609 197.062 194.609 204.949V321.816C194.609 329.703 201.463 336.096 209.918 336.096H412.636C421.091 336.096 427.946 329.703 427.946 321.816V204.949C427.946 197.062 421.091 190.669 412.636 190.669Z" fill="black"/>
<path d="M400.832 203.218H221.723C215.278 203.218 210.054 208.091 210.054 214.103V315.589C210.054 321.601 215.278 326.474 221.723 326.474H400.832C407.276 326.474 412.501 321.601 412.501 315.589V214.103C412.501 208.091 407.276 203.218 400.832 203.218Z" fill="white"/>
<path d="M325.408 223.814H274.573C270.06 223.814 266.401 227.227 266.401 231.437V302.119C266.401 306.329 270.06 309.742 274.573 309.742H325.408C329.921 309.742 333.58 306.329 333.58 302.119V231.437C333.58 227.227 329.921 223.814 325.408 223.814Z" fill="#D4FF8C"/>
<path d="M248.208 221.481H230.262C228.375 221.481 226.845 222.908 226.845 224.668V241.408C226.845 243.169 228.375 244.596 230.262 244.596H248.208C250.095 244.596 251.625 243.169 251.625 241.408V224.668C251.625 222.908 250.095 221.481 248.208 221.481Z" fill="#D4FF8C"/>
<path d="M247.547 255.466H230.923C228.671 255.466 226.845 257.169 226.845 259.27V274.776C226.845 276.877 228.671 278.58 230.923 278.58H247.547C249.799 278.58 251.625 276.877 251.625 274.776V259.27C251.625 257.169 249.799 255.466 247.547 255.466Z" fill="#ADD2DA"/>
<path d="M247.499 289.443H230.971C228.692 289.443 226.845 291.166 226.845 293.292V308.709C226.845 310.835 228.692 312.558 230.971 312.558H247.499C249.778 312.558 251.625 310.835 251.625 308.709V293.292C251.625 291.166 249.778 289.443 247.499 289.443Z" fill="#FFC1EB"/>
<path d="M399.947 226.979H346.771C346.348 226.979 345.943 226.822 345.644 226.544C345.346 226.265 345.178 225.887 345.178 225.493C345.178 225.099 345.346 224.721 345.644 224.442C345.943 224.164 346.348 224.007 346.771 224.007H399.947C400.37 224.007 400.775 224.164 401.074 224.442C401.373 224.721 401.541 225.099 401.541 225.493C401.541 225.887 401.373 226.265 401.074 226.544C400.775 226.822 400.37 226.979 399.947 226.979Z" fill="black"/>
<path d="M399.947 240.732H346.771C346.348 240.732 345.943 240.575 345.644 240.297C345.346 240.018 345.178 239.64 345.178 239.246C345.178 238.852 345.346 238.474 345.644 238.195C345.943 237.917 346.348 237.76 346.771 237.76H399.947C400.37 237.76 400.775 237.917 401.074 238.195C401.373 238.474 401.541 238.852 401.541 239.246C401.541 239.64 401.373 240.018 401.074 240.297C400.775 240.575 400.37 240.732 399.947 240.732Z" fill="black"/>
<path d="M383.435 254.418H346.795C346.372 254.418 345.967 254.261 345.668 253.983C345.369 253.704 345.202 253.326 345.202 252.932C345.202 252.538 345.369 252.16 345.668 251.881C345.967 251.603 346.372 251.446 346.795 251.446H383.435C383.858 251.446 384.263 251.603 384.562 251.881C384.861 252.16 385.028 252.538 385.028 252.932C385.028 253.326 384.861 253.704 384.562 253.983C384.263 254.261 383.858 254.418 383.435 254.418Z" fill="black"/>
<path d="M374.458 264.761H352.299C348.397 264.761 345.234 267.711 345.234 271.351C345.234 274.991 348.397 277.941 352.299 277.941H374.458C378.36 277.941 381.524 274.991 381.524 271.351C381.524 267.711 378.36 264.761 374.458 264.761Z" fill="#ADD2DA"/>
<path d="M396.275 277.548C399.94 277.548 402.911 274.777 402.911 271.358C402.911 267.94 399.94 265.169 396.275 265.169C392.611 265.169 389.64 267.94 389.64 271.358C389.64 274.777 392.611 277.548 396.275 277.548Z" fill="#FB6D6D"/>
<path d="M313.38 363.453H257.878L280.603 336.096H338.383L313.38 363.453Z" fill="black"/>
<path d="M553.384 459.293C553.252 459.293 553.121 459.278 552.994 459.248C552.791 459.2 552.6 459.116 552.432 458.999C552.264 458.883 552.122 458.736 552.015 458.569C551.908 458.401 551.837 458.215 551.807 458.022C551.776 457.829 551.787 457.632 551.839 457.443L572.803 380.171C572.909 379.788 573.173 379.461 573.538 379.26C573.902 379.06 574.337 379.002 574.747 379.101C575.157 379.199 575.508 379.446 575.723 379.786C575.938 380.126 575.999 380.531 575.894 380.914L554.929 458.186C554.839 458.504 554.639 458.785 554.359 458.985C554.079 459.186 553.736 459.294 553.384 459.293Z" fill="black"/>
<path d="M438.245 617.901C438.173 617.908 438.101 617.908 438.03 617.901C437.822 617.875 437.622 617.812 437.44 617.714C437.259 617.616 437.1 617.486 436.973 617.33C436.846 617.175 436.752 616.998 436.699 616.809C436.645 616.62 436.632 616.423 436.66 616.229L458.11 468.514C458.138 468.318 458.207 468.13 458.312 467.96C458.418 467.789 458.559 467.64 458.726 467.52C458.894 467.401 459.085 467.313 459.289 467.262C459.493 467.211 459.705 467.199 459.915 467.224C460.124 467.25 460.325 467.314 460.508 467.413C460.691 467.511 460.851 467.643 460.979 467.799C461.108 467.955 461.202 468.133 461.256 468.324C461.31 468.514 461.324 468.712 461.297 468.907L439.822 616.616C439.77 616.972 439.582 617.298 439.292 617.534C439.002 617.77 438.63 617.901 438.245 617.901Z" fill="black"/>
<path d="M576.783 300.537L560.625 366.929C559.263 372.527 563.024 378.096 569.025 379.367L581.19 381.943C587.191 383.214 593.161 379.705 594.523 374.107L610.681 307.715C612.044 302.117 608.283 296.548 602.281 295.277L590.117 292.702C584.115 291.431 578.145 294.939 576.783 300.537Z" fill="#C7B8F8"/>
<path d="M554.507 617.901C554.12 617.905 553.746 617.777 553.453 617.542C553.159 617.307 552.968 616.98 552.914 616.623L530.523 468.9C530.464 468.506 530.575 468.106 530.832 467.788C531.089 467.47 531.471 467.261 531.893 467.206C532.316 467.151 532.745 467.254 533.085 467.494C533.426 467.734 533.65 468.09 533.709 468.484L556.092 616.207C556.151 616.597 556.042 616.993 555.788 617.308C555.534 617.623 555.156 617.831 554.738 617.886C554.662 617.899 554.584 617.904 554.507 617.901Z" fill="black"/>
<path d="M547.091 568.937H445.35C444.927 568.937 444.522 568.781 444.223 568.502C443.925 568.223 443.757 567.845 443.757 567.451C443.757 567.057 443.925 566.679 444.223 566.401C444.522 566.122 444.927 565.965 445.35 565.965H547.091C547.514 565.965 547.919 566.122 548.218 566.401C548.516 566.679 548.684 567.057 548.684 567.451C548.684 567.845 548.516 568.223 548.218 568.502C547.919 568.781 547.514 568.937 547.091 568.937Z" fill="black"/>
<path d="M545.681 433.83H449.253C443.173 433.83 438.245 438.427 438.245 444.099V458.424C438.245 464.095 443.173 468.692 449.253 468.692H545.681C551.761 468.692 556.689 464.095 556.689 458.424V444.099C556.689 438.427 551.761 433.83 545.681 433.83Z" fill="#C7B8F8"/>
<path d="M559.621 208.189C572.664 208.189 583.238 198.325 583.238 186.159C583.238 173.992 572.664 164.129 559.621 164.129C546.577 164.129 536.004 173.992 536.004 186.159C536.004 198.325 546.577 208.189 559.621 208.189Z" fill="black"/>
<path d="M602.984 195.84C620.493 195.84 634.686 182.6 634.686 166.269C634.686 149.937 620.493 136.697 602.984 136.697C585.475 136.697 571.282 149.937 571.282 166.269C571.282 182.6 585.475 195.84 602.984 195.84Z" fill="black"/>
<path d="M544.192 227.856C544.192 225.294 543.101 222.837 541.159 221.026C539.217 219.214 536.583 218.197 533.837 218.197C533.352 218.201 532.867 218.236 532.387 218.301L530.404 192.95L491.748 196.821C487.778 197.215 484.105 198.966 481.436 201.735C478.766 204.505 477.29 208.098 477.291 211.822V215.901C477.325 220.628 475.916 225.267 473.229 229.275L473.157 229.372V229.409C472.864 229.822 472.668 230.288 472.583 230.777C472.498 231.266 472.526 231.766 472.665 232.244C472.803 232.722 473.05 233.167 473.387 233.55C473.725 233.932 474.146 234.243 474.623 234.461L477.315 235.694V245.249C477.314 247.149 477.755 249.026 478.607 250.751C479.458 252.477 480.7 254.009 482.247 255.244C483.794 256.479 485.61 257.387 487.569 257.905C489.528 258.423 491.584 258.539 493.596 258.245L503.521 256.803L505.512 272.681L537.111 269.204L534.968 252.256H535.064L533.909 237.507C536.641 237.49 539.255 236.465 541.181 234.657C543.108 232.85 544.19 230.405 544.192 227.856Z" fill="white"/>
<path d="M504.118 274.33L502.119 258.564L493.835 259.768C491.596 260.094 489.308 259.964 487.129 259.387C484.949 258.81 482.929 257.799 481.208 256.424C479.487 255.05 478.105 253.344 477.158 251.424C476.211 249.504 475.721 247.415 475.722 245.301V236.66L473.914 235.836C473.24 235.53 472.644 235.094 472.165 234.558C471.686 234.021 471.334 233.395 471.134 232.722C470.934 232.035 470.891 231.316 471.007 230.612C471.124 229.908 471.398 229.235 471.811 228.636L471.898 228.51C474.435 224.738 475.762 220.368 475.722 215.916V211.837C475.713 207.746 477.33 203.797 480.261 200.753C483.191 197.71 487.227 195.787 491.589 195.357L531.885 191.323L533.877 216.726C536.852 216.782 539.698 217.872 541.858 219.782C544.017 221.693 545.334 224.286 545.551 227.055C545.769 229.824 544.87 232.568 543.032 234.752C541.194 236.935 538.548 238.4 535.613 238.86L536.752 253.504L538.903 270.504L504.118 274.33ZM504.915 255.131L506.922 271.032L535.358 267.904L533.224 251.015H533.383L532.212 236.044H533.916C536.24 236.038 538.466 235.171 540.105 233.634C541.744 232.097 542.661 230.016 542.654 227.848C542.648 225.681 541.719 223.604 540.071 222.076C538.424 220.547 536.192 219.692 533.869 219.698C533.458 219.701 533.048 219.731 532.642 219.787L530.953 220.01L528.93 194.607L491.907 198.322C488.328 198.674 485.016 200.252 482.611 202.749C480.206 205.247 478.878 208.487 478.884 211.844V215.923C478.924 220.942 477.423 225.866 474.559 230.115L474.479 230.233C474.304 230.482 474.188 230.762 474.137 231.055C474.086 231.348 474.102 231.648 474.184 231.935C474.263 232.204 474.402 232.454 474.593 232.668C474.784 232.882 475.022 233.055 475.292 233.176L478.884 234.81V245.294C478.884 246.978 479.276 248.642 480.03 250.172C480.785 251.701 481.886 253.061 483.257 254.156C484.628 255.252 486.237 256.057 487.974 256.518C489.71 256.979 491.533 257.084 493.317 256.825L504.915 255.131Z" fill="black"/>
<path d="M487.51 246.802C487.105 246.802 486.7 246.77 486.3 246.706C484.761 246.457 483.333 245.796 482.19 244.804C481.873 244.538 481.682 244.165 481.66 243.768C481.637 243.371 481.785 242.982 482.07 242.686C482.355 242.391 482.755 242.213 483.18 242.192C483.606 242.171 484.023 242.309 484.34 242.575C485.032 243.173 485.891 243.577 486.817 243.741C489.765 244.194 492.083 241.512 492.106 241.512C492.373 241.219 492.75 241.034 493.159 240.995C493.568 240.956 493.978 241.066 494.302 241.302C494.626 241.538 494.84 241.882 494.898 242.262C494.957 242.642 494.855 243.028 494.616 243.34C494.448 243.511 491.636 246.802 487.51 246.802Z" fill="black"/>
<path d="M494.034 226.66C495.42 226.66 496.543 225.612 496.543 224.319C496.543 223.027 495.42 221.979 494.034 221.979C492.648 221.979 491.525 223.027 491.525 224.319C491.525 225.612 492.648 226.66 494.034 226.66Z" fill="black"/>
<path d="M532.786 232.871C531.938 232.871 531.109 232.637 530.405 232.197C529.7 231.758 529.151 231.134 528.826 230.403C528.502 229.673 528.417 228.869 528.582 228.094C528.748 227.319 529.156 226.606 529.755 226.047C530.355 225.488 531.118 225.107 531.949 224.953C532.781 224.799 533.642 224.878 534.425 225.181C535.209 225.483 535.878 225.996 536.349 226.653C536.82 227.31 537.071 228.083 537.071 228.874C537.071 229.934 536.619 230.951 535.816 231.7C535.012 232.45 533.922 232.871 532.786 232.871ZM532.786 227.848C532.568 227.848 532.356 227.909 532.175 228.021C531.994 228.134 531.853 228.294 531.77 228.481C531.687 228.669 531.665 228.875 531.707 229.074C531.75 229.273 531.855 229.455 532.008 229.599C532.162 229.742 532.358 229.84 532.571 229.879C532.784 229.919 533.005 229.899 533.206 229.821C533.407 229.743 533.579 229.612 533.699 229.443C533.82 229.275 533.885 229.077 533.885 228.874C533.885 228.602 533.769 228.341 533.563 228.149C533.357 227.956 533.077 227.848 532.786 227.848Z" fill="black"/>
<path d="M507.137 268.669L555.614 266.618C562.865 266.24 569.983 268.55 575.416 273.045C582.402 278.989 587.866 289.904 580.259 309.742L569.553 328.354L509.017 321.518L498.558 340.495L460.564 344.544C459.624 344.641 456.716 339.975 456.31 339.388C453.286 335.089 451.317 330.22 450.543 325.129C448.552 310.626 460.102 298.976 469.047 288.373C478.541 277.065 491.159 269.345 507.137 268.669Z" fill="#ADD2DA"/>
<path d="M530.189 231.014C529.815 231.02 529.45 230.904 529.159 230.685C528.868 230.467 528.669 230.159 528.596 229.817C528.379 228.817 528.448 227.782 528.795 226.815C529.141 225.848 529.754 224.982 530.571 224.304C531.362 223.688 532.299 223.255 533.304 223.042C534.31 222.829 535.355 222.841 536.354 223.078C536.556 223.13 536.745 223.219 536.91 223.34C537.075 223.46 537.213 223.609 537.316 223.779C537.419 223.949 537.486 224.137 537.511 224.331C537.537 224.525 537.521 224.721 537.465 224.91C537.409 225.098 537.314 225.274 537.185 225.428C537.056 225.582 536.896 225.711 536.713 225.807C536.531 225.904 536.33 225.965 536.122 225.989C535.914 226.013 535.703 225.998 535.502 225.946C535.014 225.836 534.505 225.831 534.015 225.933C533.524 226.035 533.066 226.24 532.674 226.533C532.277 226.866 531.979 227.29 531.812 227.763C531.644 228.236 531.612 228.742 531.718 229.23C531.76 229.422 531.761 229.619 531.721 229.81C531.681 230.002 531.602 230.184 531.486 230.347C531.371 230.51 531.222 230.65 531.049 230.759C530.875 230.869 530.681 230.945 530.475 230.984C530.381 230.999 530.285 231.009 530.189 231.014Z" fill="black"/>
<path d="M491.764 196.836C491.764 196.836 491.246 226.771 532.714 218.271L530.42 192.964L491.764 196.836Z" fill="black"/>
<path d="M494.616 237.322C488.036 237.322 482.667 231.534 482.667 224.408C482.667 217.283 488.028 211.495 494.616 211.495C501.203 211.495 506.564 217.29 506.564 224.408C506.564 231.526 501.203 237.322 494.616 237.322ZM494.616 214.467C489.789 214.467 485.854 218.925 485.854 224.408C485.854 229.892 489.781 234.35 494.616 234.35C499.45 234.35 503.377 229.892 503.377 224.408C503.377 218.925 499.458 214.467 494.616 214.467Z" fill="black"/>
<path d="M549.194 393.708H488.307V356.008H544.566C548.541 368.211 550.12 380.982 549.226 393.708H549.194Z" fill="black"/>
<path d="M395.694 363.453H364.327C362.579 363.456 360.855 363.08 359.291 362.354C357.726 361.628 356.364 360.572 355.312 359.27C354.261 357.969 353.548 356.456 353.231 354.854C352.914 353.251 353.001 351.601 353.486 350.035C354.143 347.93 355.515 346.082 357.395 344.768C359.276 343.453 361.563 342.744 363.912 342.746H396.1C398.366 342.745 400.576 343.406 402.419 344.636C404.261 345.866 405.645 347.603 406.376 349.604C406.948 351.184 407.108 352.869 406.843 354.519C406.578 356.168 405.895 357.735 404.85 359.089C403.806 360.443 402.43 361.545 400.838 362.304C399.246 363.063 397.482 363.457 395.694 363.453Z" fill="#F3EAD6"/>
<path d="M508.077 321.518L497.77 340.495L438.404 346.008C436.184 346.214 433.948 345.814 431.968 344.856L406.264 332.403C406.264 332.403 397.287 327.715 384.311 332.767L362.455 342.018C361.537 342.388 360.766 343.017 360.252 343.816C359.738 344.616 359.505 345.546 359.587 346.476V346.52C359.641 346.901 359.783 347.266 360.001 347.591C360.22 347.916 360.511 348.194 360.854 348.405C361.198 348.617 361.586 348.757 361.993 348.816C362.399 348.875 362.815 348.853 363.211 348.749L386.351 342.694L375.51 351.84C373.914 353.174 372.8 354.936 372.324 356.885C371.591 360.058 372.475 364.36 381.285 366.321C381.285 366.321 385.339 372.674 392.237 369.293C392.277 369.293 393.257 370.103 393.336 370.155C394.413 370.93 395.565 371.609 396.777 372.184C400.573 373.944 404.728 374.929 408.964 375.074C411.593 375.193 414.062 374.123 414.404 371.463L416.619 371.678C423.522 372.337 430.396 373.283 437.241 374.517L489.597 383.96C503.935 385.855 514.194 382.994 519.428 381.062C534.721 375.423 544.63 365.393 552.579 352.65L567.713 328.347L508.077 321.518Z" fill="white"/>
<path d="M498.957 386.085C495.758 386.079 492.564 385.863 489.398 385.439H489.319L436.931 375.958C430.176 374.739 423.286 373.796 416.452 373.135L415.591 373.053C414.62 375.334 412.087 376.694 408.877 376.545C404.413 376.386 400.037 375.345 396.036 373.491C394.741 372.871 393.507 372.145 392.349 371.322L392.038 371.069L391.982 371.024C386.406 373.201 382.121 370.051 380.281 367.599C370.348 365.17 370.038 359.657 370.723 356.551C371.271 354.291 372.57 352.25 374.435 350.718L380.265 345.8L363.586 350.146C362.973 350.307 362.33 350.343 361.701 350.253C361.072 350.163 360.471 349.949 359.937 349.625C359.404 349.3 358.951 348.873 358.609 348.373C358.267 347.872 358.044 347.309 357.954 346.721C357.811 345.47 358.098 344.209 358.772 343.12C359.446 342.03 360.473 341.168 361.706 340.658L383.65 331.393C397.231 326.103 406.646 330.88 407.045 331.088L432.669 343.511C434.383 344.345 436.322 344.691 438.245 344.507L496.734 339.075L507.153 319.899L570.35 327.15L553.965 353.408C544.821 368.052 534.052 377.281 520.025 382.452C513.312 384.895 506.163 386.127 498.957 386.085ZM489.852 382.496C500.287 383.871 510.044 382.927 518.838 379.688C532.331 374.71 542.312 366.143 551.193 351.915L565.149 329.55L509.017 323.123L498.821 341.891L438.587 347.486C436.06 347.722 433.513 347.265 431.259 346.171L405.587 333.726C405.205 333.533 397.016 329.446 384.981 334.142L363.108 343.37C362.499 343.607 361.985 344.015 361.635 344.537C361.286 345.058 361.118 345.668 361.156 346.283C361.18 346.455 361.242 346.621 361.34 346.769C361.438 346.917 361.568 347.044 361.723 347.141C361.878 347.239 362.053 347.304 362.237 347.332C362.421 347.361 362.609 347.353 362.789 347.308L392.452 339.551L376.609 352.925C375.24 354.039 374.282 355.525 373.869 357.175C373.001 360.927 375.613 363.513 381.643 364.85L382.296 364.999L382.639 365.541C382.981 366.061 386.128 370.586 391.488 367.956C392.492 367.465 393.153 368.015 394.157 368.847L394.34 369.004C395.341 369.707 396.407 370.326 397.526 370.854C401.122 372.509 405.053 373.436 409.06 373.573C410.103 373.618 412.557 373.499 412.835 371.27L413.019 369.784L416.802 370.148C423.724 370.809 430.71 371.767 437.56 373.008L489.852 382.496Z" fill="black"/>
<path d="M417.559 608.264H350.522C348.754 608.264 347.32 609.602 347.32 611.251V613.859C347.32 615.509 348.754 616.846 350.522 616.846H417.559C419.327 616.846 420.761 615.509 420.761 613.859V611.251C420.761 609.602 419.327 608.264 417.559 608.264Z" fill="black"/>
<path d="M339.682 593.04L370.492 587.914H415.56V603.413C415.56 604.829 414.956 606.188 413.882 607.19C412.808 608.192 411.351 608.755 409.832 608.755H350.507L339.682 593.04Z" fill="white"/>
<path d="M409.832 610.241H349.654L337.045 591.97L370.5 586.428H417.161V603.413C417.158 605.224 416.385 606.961 415.011 608.241C413.637 609.522 411.775 610.241 409.832 610.241ZM351.391 607.269H409.832C410.928 607.267 411.979 606.86 412.753 606.137C413.528 605.414 413.964 604.435 413.966 603.413V589.4H370.635L342.31 594.11L351.391 607.269Z" fill="black"/>
<path d="M301.464 558.602L282.945 545.971C280.089 544.029 277.672 541.582 275.831 538.768C273.99 535.955 272.761 532.83 272.214 529.574C271.668 526.317 271.814 522.992 272.645 519.788C273.476 516.585 274.976 513.565 277.058 510.902L357.747 407.684C360.8 403.777 364.649 400.469 369.073 397.95C373.497 395.431 378.41 393.749 383.53 393.001C388.651 392.253 393.88 392.454 398.918 393.591C403.956 394.728 408.704 396.78 412.891 399.63C417.08 402.478 420.626 406.068 423.327 410.194C426.028 414.321 427.83 418.904 428.632 423.68C429.434 428.457 429.219 433.334 428 438.034C426.78 442.733 424.58 447.162 421.526 451.068L342.127 552.666C337.578 558.482 330.739 562.375 323.114 563.489C315.488 564.602 307.7 562.844 301.464 558.602Z" fill="black"/>
<path d="M493.994 446.543H353.008V420.701C353.01 410.759 357.245 401.225 364.783 394.196C372.32 387.166 382.542 383.217 393.201 383.217H549.194V395.053C549.194 408.709 543.378 421.806 533.026 431.462C522.674 441.118 508.634 446.543 493.994 446.543Z" fill="black"/>
<path d="M402.871 591.547H379.978C372.841 591.547 365.997 588.903 360.949 584.196C355.902 579.489 353.066 573.106 353.063 566.448V443.37H432V564.398C432.001 567.965 431.248 571.498 429.784 574.794C428.321 578.089 426.175 581.084 423.469 583.605C420.764 586.127 417.552 588.126 414.017 589.489C410.483 590.851 406.695 591.551 402.871 591.547Z" fill="black"/>
<path d="M310.927 559.122C310.636 559.122 310.35 559.046 310.102 558.905C309.853 558.763 309.651 558.561 309.517 558.319C309.383 558.078 309.323 557.807 309.342 557.536C309.362 557.265 309.461 557.004 309.629 556.782L351.733 501.057C351.977 500.735 352.349 500.516 352.765 500.449C353.182 500.382 353.61 500.473 353.956 500.7C354.301 500.928 354.535 501.274 354.607 501.663C354.679 502.052 354.582 502.451 354.338 502.773L312.233 558.498C312.085 558.692 311.889 558.85 311.662 558.959C311.434 559.068 311.182 559.124 310.927 559.122Z" fill="white"/>
<path d="M406.981 592.758C406.558 592.758 406.153 592.601 405.854 592.323C405.556 592.044 405.388 591.666 405.388 591.272V440.309C405.392 434.719 407.774 429.359 412.011 425.406C416.247 421.453 421.993 419.229 427.986 419.223H489.94C496.449 419.217 502.689 416.803 507.292 412.509C511.894 408.216 514.483 402.395 514.489 396.324V383.217C514.489 382.823 514.657 382.445 514.956 382.166C515.254 381.888 515.66 381.731 516.082 381.731C516.505 381.731 516.91 381.888 517.209 382.166C517.507 382.445 517.675 382.823 517.675 383.217V396.324C517.667 403.183 514.742 409.759 509.542 414.609C504.343 419.459 497.293 422.187 489.94 422.195H427.986C422.838 422.201 417.903 424.111 414.264 427.507C410.624 430.903 408.578 435.507 408.574 440.309V591.272C408.574 591.666 408.406 592.044 408.107 592.323C407.809 592.601 407.403 592.758 406.981 592.758Z" fill="white"/>
<path d="M381.269 367.785C380.925 367.783 380.592 367.678 380.318 367.486C380.044 367.293 379.844 367.023 379.747 366.715C376.051 354.909 389.616 347.613 389.76 347.538C389.942 347.441 390.143 347.378 390.351 347.352C390.559 347.327 390.771 347.341 390.973 347.392C391.176 347.443 391.366 347.53 391.532 347.65C391.698 347.769 391.838 347.918 391.942 348.088C392.047 348.258 392.115 348.445 392.142 348.639C392.169 348.834 392.154 349.031 392.1 349.22C392.045 349.409 391.951 349.586 391.823 349.741C391.695 349.896 391.535 350.026 391.353 350.124C389.276 351.319 387.411 352.808 385.825 354.537C382.639 358.119 381.595 361.93 382.838 365.883C382.956 366.261 382.909 366.668 382.705 367.014C382.502 367.359 382.16 367.615 381.755 367.726C381.596 367.766 381.433 367.786 381.269 367.785Z" fill="black"/>
<path d="M392.229 370.757C391.969 370.756 391.714 370.696 391.485 370.582C391.256 370.468 391.06 370.304 390.915 370.103C390.054 369.013 389.457 367.761 389.166 366.435C388.874 365.108 388.895 363.739 389.226 362.421C390.819 356.164 398.92 351.907 399.27 351.729C399.454 351.62 399.659 351.547 399.873 351.515C400.088 351.483 400.307 351.492 400.517 351.542C400.728 351.592 400.925 351.681 401.097 351.805C401.269 351.928 401.413 352.083 401.518 352.26C401.624 352.438 401.689 352.633 401.711 352.834C401.732 353.036 401.71 353.24 401.644 353.433C401.578 353.626 401.471 353.804 401.328 353.957C401.186 354.11 401.011 354.234 400.816 354.322C400.688 354.396 393.583 358.156 392.325 363.111C392.099 364.027 392.092 364.978 392.302 365.897C392.513 366.816 392.937 367.681 393.543 368.431C393.707 368.655 393.803 368.915 393.819 369.185C393.836 369.455 393.773 369.725 393.638 369.964C393.503 370.203 393.3 370.404 393.052 370.543C392.804 370.683 392.519 370.757 392.229 370.757Z" fill="black"/>
<path d="M414.397 372.986C414.005 372.989 413.627 372.857 413.333 372.616C413.039 372.374 412.851 372.041 412.804 371.678C412.493 369.301 407.307 366.477 404.838 365.504L402.64 364.627L410.271 357.74C410.578 357.487 410.978 357.354 411.387 357.369C411.796 357.384 412.184 357.546 412.469 357.82C412.754 358.095 412.914 358.461 412.917 358.843C412.92 359.225 412.766 359.594 412.485 359.872L408.208 363.736C411.003 365.132 415.512 367.896 415.958 371.322C416.007 371.712 415.889 372.104 415.63 372.413C415.37 372.722 414.99 372.923 414.572 372.971L414.397 372.986Z" fill="black"/>
<path d="M359.197 616.854H321.258C319.861 616.854 318.522 616.336 317.535 615.415C316.547 614.494 315.993 613.245 315.993 611.942C315.995 606.599 318.271 601.475 322.322 597.696C326.373 593.918 331.866 591.794 337.595 591.792C343.324 591.792 348.819 593.915 352.87 597.694C356.921 601.473 359.197 606.598 359.197 611.942V616.854Z" fill="black"/>
<path d="M504.97 223.769C504.548 223.791 504.134 223.655 503.818 223.392C503.503 223.128 503.313 222.759 503.29 222.365C503.267 221.971 503.412 221.584 503.694 221.29C503.977 220.996 504.373 220.819 504.795 220.797L529.918 218.204C530.34 218.161 530.764 218.276 531.096 218.524C531.427 218.772 531.64 219.133 531.686 219.527C531.733 219.921 531.609 220.316 531.344 220.625C531.078 220.935 530.691 221.133 530.268 221.176L505.146 223.762L504.97 223.769Z" fill="black"/>
<path d="M503.712 255.317L504.835 264.233L521.467 254.002C521.584 253.932 521.671 253.826 521.715 253.703C521.758 253.58 521.755 253.447 521.705 253.326C521.656 253.205 521.563 253.103 521.443 253.038C521.322 252.973 521.182 252.949 521.045 252.969L503.712 255.317Z" fill="black"/>
<path d="M508.077 323.004C507.858 323.006 507.641 322.966 507.44 322.886C507.058 322.723 506.76 322.427 506.611 322.061C506.462 321.695 506.473 321.289 506.643 320.931L513.175 306.904C513.256 306.722 513.375 306.557 513.525 306.419C513.675 306.28 513.853 306.171 514.049 306.098C514.245 306.024 514.454 305.987 514.665 305.99C514.876 305.992 515.085 306.034 515.278 306.112C515.472 306.19 515.647 306.304 515.793 306.446C515.94 306.587 516.054 306.755 516.131 306.939C516.207 307.122 516.243 307.318 516.238 307.515C516.232 307.712 516.185 307.905 516.098 308.085L509.559 322.113C509.433 322.381 509.226 322.609 508.962 322.767C508.699 322.926 508.391 323.008 508.077 323.004Z" fill="black"/>
<path d="M353.518 537.271C353.095 537.271 352.69 537.114 352.391 536.835C352.092 536.557 351.924 536.179 351.924 535.785V414.884C351.924 414.49 352.092 414.112 352.391 413.833C352.69 413.554 353.095 413.398 353.518 413.398C353.94 413.398 354.345 413.554 354.644 413.833C354.943 414.112 355.111 414.49 355.111 414.884V535.785C355.111 536.179 354.943 536.557 354.644 536.835C354.345 537.114 353.94 537.271 353.518 537.271Z" fill="white"/>
<path d="M757.034 221.956H612.152C602.421 221.956 594.533 229.315 594.533 238.392V320.924C594.533 330.001 602.421 337.359 612.152 337.359H757.034C766.765 337.359 774.653 330.001 774.653 320.924V238.392C774.653 229.315 766.765 221.956 757.034 221.956Z" fill="white"/>
<path d="M757.034 338.845H612.152C607.059 338.839 602.176 336.949 598.574 333.59C594.972 330.23 592.946 325.675 592.94 320.924V238.392C592.946 233.64 594.972 229.085 598.574 225.726C602.176 222.366 607.059 220.476 612.152 220.47H757.034C762.127 220.476 767.01 222.366 770.612 225.726C774.214 229.085 776.24 233.64 776.246 238.392V320.924C776.24 325.675 774.214 330.23 770.612 333.59C767.01 336.949 762.127 338.839 757.034 338.845ZM612.152 223.442C607.903 223.446 603.829 225.023 600.825 227.825C597.82 230.628 596.13 234.428 596.126 238.392V320.924C596.13 324.888 597.82 328.688 600.825 331.49C603.829 334.293 607.903 335.869 612.152 335.873H757.034C761.282 335.867 765.355 334.29 768.359 331.488C771.363 328.686 773.054 324.887 773.06 320.924V238.392C773.056 234.428 771.366 230.628 768.361 227.825C765.357 225.023 761.283 223.446 757.034 223.442H612.152Z" fill="black"/>
<path d="M692.745 264.151C695.715 264.151 698.122 261.906 698.122 259.136C698.122 256.366 695.715 254.121 692.745 254.121C689.776 254.121 687.369 256.366 687.369 259.136C687.369 261.906 689.776 264.151 692.745 264.151Z" fill="#FFC1EB"/>
<path d="M711.368 264.151C714.338 264.151 716.745 261.906 716.745 259.136C716.745 256.366 714.338 254.121 711.368 254.121C708.399 254.121 705.992 256.366 705.992 259.136C705.992 261.906 708.399 264.151 711.368 264.151Z" fill="#FFC1EB"/>
<path d="M729.999 264.151C732.969 264.151 735.376 261.906 735.376 259.136C735.376 256.366 732.969 254.121 729.999 254.121C727.03 254.121 724.623 256.366 724.623 259.136C724.623 261.906 727.03 264.151 729.999 264.151Z" fill="#FFC1EB"/>
<path d="M748.63 264.151C751.6 264.151 754.007 261.906 754.007 259.136C754.007 256.366 751.6 254.121 748.63 254.121C745.661 254.121 743.254 256.366 743.254 259.136C743.254 261.906 745.661 264.151 748.63 264.151Z" fill="#FFC1EB"/>
<path d="M640.78 283.633C646.547 283.633 651.222 279.272 651.222 273.892C651.222 268.512 646.547 264.151 640.78 264.151C635.012 264.151 630.337 268.512 630.337 273.892C630.337 279.272 635.012 283.633 640.78 283.633Z" fill="#D4FF8C"/>
<path d="M639.856 288.611C636.376 288.589 632.947 289.392 629.89 290.943C626.834 292.495 624.25 294.745 622.38 297.482C627.404 301.191 633.58 303.286 639.985 303.453C646.39 303.621 652.682 301.852 657.921 298.411C656.128 295.417 653.505 292.928 650.327 291.204C647.149 289.48 643.532 288.584 639.856 288.611Z" fill="#D4FF8C"/>
<path d="M754.007 279.368H686.301C685.879 279.368 685.474 279.211 685.175 278.933C684.876 278.654 684.708 278.276 684.708 277.882C684.708 277.488 684.876 277.11 685.175 276.831C685.474 276.553 685.879 276.396 686.301 276.396H754.007C754.429 276.396 754.835 276.553 755.133 276.831C755.432 277.11 755.6 277.488 755.6 277.882C755.6 278.276 755.432 278.654 755.133 278.933C754.835 279.211 754.429 279.368 754.007 279.368Z" fill="black"/>
<path d="M754.007 291.033H686.301C685.879 291.033 685.474 290.877 685.175 290.598C684.876 290.319 684.708 289.941 684.708 289.547C684.708 289.153 684.876 288.775 685.175 288.496C685.474 288.218 685.879 288.061 686.301 288.061H754.007C754.429 288.061 754.835 288.218 755.133 288.496C755.432 288.775 755.6 289.153 755.6 289.547C755.6 289.941 755.432 290.319 755.133 290.598C754.835 290.877 754.429 291.033 754.007 291.033Z" fill="black"/>
<path d="M728.86 302.713H686.333C685.911 302.713 685.506 302.557 685.207 302.278C684.908 301.999 684.74 301.621 684.74 301.227C684.74 300.833 684.908 300.455 685.207 300.176C685.506 299.898 685.911 299.741 686.333 299.741H728.86C729.283 299.741 729.688 299.898 729.987 300.176C730.285 300.455 730.453 300.833 730.453 301.227C730.453 301.621 730.285 301.999 729.987 302.278C729.688 302.557 729.283 302.713 728.86 302.713Z" fill="black"/>
<path d="M640.15 304.154C634.594 304.154 629.162 302.618 624.542 299.738C619.922 296.859 616.321 292.766 614.195 287.977C612.069 283.189 611.512 277.92 612.596 272.836C613.68 267.753 616.356 263.084 620.285 259.419C624.214 255.754 629.22 253.258 634.669 252.247C640.119 251.236 645.768 251.755 650.901 253.738C656.035 255.721 660.422 259.08 663.509 263.39C666.596 267.699 668.244 272.766 668.244 277.949C668.236 284.897 665.273 291.558 660.006 296.47C654.739 301.383 647.599 304.147 640.15 304.154ZM640.15 254.723C635.224 254.723 630.408 256.085 626.312 258.639C622.215 261.192 619.023 264.821 617.138 269.067C615.253 273.313 614.76 277.985 615.722 282.492C616.684 286.999 619.057 291.139 622.541 294.388C626.025 297.637 630.464 299.849 635.296 300.744C640.128 301.64 645.136 301.179 649.688 299.419C654.239 297.66 658.128 294.681 660.864 290.859C663.6 287.037 665.059 282.544 665.058 277.949C665.049 271.79 662.422 265.886 657.753 261.532C653.083 257.177 646.753 254.729 640.15 254.723Z" fill="black"/>
<path d="M673.684 383.217H621.129C614.46 383.217 609.054 388.26 609.054 394.481V443.504C609.054 449.725 614.46 454.768 621.129 454.768H673.684C680.353 454.768 685.76 449.725 685.76 443.504V394.481C685.76 388.26 680.353 383.217 673.684 383.217Z" fill="white"/>
<path d="M673.684 456.254H621.113C617.488 456.252 614.012 454.908 611.447 452.518C608.883 450.128 607.441 446.886 607.437 443.504V394.466C607.441 391.085 608.883 387.843 611.447 385.452C614.012 383.062 617.488 381.718 621.113 381.716H673.684C677.309 381.718 680.786 383.062 683.35 385.452C685.914 387.843 687.357 391.085 687.361 394.466V443.504C687.357 446.886 685.914 450.128 683.35 452.518C680.786 454.908 677.309 456.252 673.684 456.254ZM621.113 384.703C618.333 384.705 615.667 385.736 613.7 387.569C611.734 389.402 610.627 391.888 610.623 394.481V443.519C610.627 446.112 611.734 448.598 613.7 450.431C615.667 452.264 618.333 453.295 621.113 453.297H673.684C676.464 453.295 679.13 452.264 681.097 450.431C683.064 448.598 684.17 446.112 684.175 443.519V394.481C684.17 391.888 683.064 389.402 681.097 387.569C679.13 385.736 676.464 384.705 673.684 384.703H621.113Z" fill="black"/>
<path d="M635.14 435.926V419.111C635.133 418.809 635.215 418.511 635.376 418.249C635.538 417.987 635.773 417.772 636.056 417.625C638.573 416.31 645.495 411.934 646.299 403.07C646.594 399.868 648.1 398.359 649.685 397.995C651.517 397.579 653.405 399.363 653.667 399.6C657.977 403.791 653.476 413.398 653.062 414.26L658.757 414.118C659.872 414.092 660.981 414.27 662.022 414.644C663.063 415.018 664.014 415.579 664.822 416.296C665.63 417.013 666.278 417.872 666.73 418.823C667.182 419.774 667.429 420.798 667.455 421.838L667.655 429.447C667.682 430.501 667.483 431.55 667.07 432.531C666.656 433.513 666.036 434.407 665.247 435.162C664.457 435.917 663.513 436.516 662.471 436.926C661.429 437.335 660.31 437.546 659.179 437.545H636.924C636.459 437.545 636.012 437.376 635.679 437.074C635.346 436.771 635.153 436.359 635.14 435.926Z" fill="#D4FF8C"/>
<path d="M635.339 415.478H630.018C628.936 415.478 628.059 416.297 628.059 417.306V437.218C628.059 438.228 628.936 439.046 630.018 439.046H635.339C636.422 439.046 637.299 438.228 637.299 437.218V417.306C637.299 416.297 636.422 415.478 635.339 415.478Z" fill="#FFC1EB"/>
<path d="M186.309 193.41C196.863 193.41 205.418 185.43 205.418 175.586C205.418 165.742 196.863 157.761 186.309 157.761C175.756 157.761 167.2 165.742 167.2 175.586C167.2 185.43 175.756 193.41 186.309 193.41Z" fill="#FFC1EB"/>
<path d="M187.375 227.269C196.994 210.23 194.038 191.134 180.772 184.619C167.507 178.103 148.955 186.634 139.336 203.674C129.717 220.713 132.673 239.809 145.938 246.324C159.204 252.84 177.755 244.309 187.375 227.269Z" fill="#FFC1EB"/>
<path d="M183.09 290.373C186.995 264.617 171.967 241.338 149.525 238.377C127.083 235.417 105.725 253.896 101.82 279.652C97.9154 305.408 112.943 328.687 135.385 331.648C157.827 334.608 179.185 316.128 183.09 290.373Z" fill="#FFC1EB"/>
<path d="M41.2045 250.48C50.9618 250.48 58.8716 243.102 58.8716 234C58.8716 224.899 50.9618 217.521 41.2045 217.521C31.4472 217.521 23.5374 224.899 23.5374 234C23.5374 243.102 31.4472 250.48 41.2045 250.48Z" fill="#FFC1EB"/>
<path d="M60.1927 301.058C73.5008 298.151 81.0033 282.706 76.9499 266.561C72.8966 250.415 58.8224 239.684 45.5143 242.591C32.2063 245.498 24.7038 260.943 28.7571 277.088C32.8105 293.233 46.8847 303.965 60.1927 301.058Z" fill="#FFC1EB"/>
<path d="M76.8463 373.744C96.1689 370.641 108.514 350.144 104.419 327.962C100.324 305.781 81.3411 290.316 62.0185 293.419C42.6959 296.523 30.3512 317.02 34.4458 339.201C38.5404 361.383 57.5237 376.848 76.8463 373.744Z" fill="#FFC1EB"/>
<path d="M99.7736 447.182C99.3835 447.185 99.0057 447.054 98.7121 446.814C98.4185 446.575 98.2293 446.243 98.1806 445.882C88.7735 376.27 62.8543 315.775 62.5914 315.203C62.5057 315.021 62.4601 314.824 62.4574 314.625C62.4547 314.426 62.4949 314.228 62.5756 314.044C62.6563 313.86 62.7758 313.692 62.9272 313.552C63.0785 313.412 63.2586 313.301 63.4566 313.227C63.6547 313.153 63.8667 313.117 64.0801 313.12C64.2934 313.124 64.5038 313.168 64.6988 313.249C64.8937 313.33 65.0692 313.446 65.2149 313.592C65.3605 313.737 65.4733 313.909 65.5466 314.096C65.8094 314.698 91.88 375.505 101.391 445.51C101.417 445.704 101.403 445.902 101.347 446.091C101.292 446.28 101.197 446.457 101.069 446.611C100.94 446.766 100.78 446.895 100.597 446.992C100.414 447.089 100.213 447.151 100.005 447.175L99.7736 447.182Z" fill="black"/>
<path d="M119.018 447.947C118.595 447.947 118.19 447.791 117.891 447.512C117.593 447.233 117.425 446.855 117.425 446.461C117.226 376.619 127.78 320.619 136.661 285.906C146.299 248.259 156.152 226.816 156.232 226.615C156.404 226.259 156.719 225.98 157.109 225.839C157.5 225.698 157.934 225.706 158.318 225.861C158.702 226.016 159.006 226.306 159.162 226.669C159.319 227.031 159.316 227.436 159.155 227.796C159.06 228.004 149.31 249.269 139.736 286.701C130.902 321.236 120.412 376.998 120.619 446.446C120.619 446.841 120.451 447.219 120.152 447.497C119.854 447.776 119.448 447.932 119.026 447.932L119.018 447.947Z" fill="black"/>
<path d="M128.17 446.461H87.9929C75.8645 446.461 66.0325 455.633 66.0325 466.946V608.562C66.0325 619.875 75.8645 629.046 87.9929 629.046H128.17C140.299 629.046 150.131 619.875 150.131 608.562V466.946C150.131 455.633 140.299 446.461 128.17 446.461Z" fill="#D4FF8C"/>
<path d="M70.1266 619.29C69.8148 619.291 69.5098 619.206 69.2492 619.046C68.9887 618.886 68.7842 618.659 68.661 618.391C68.4911 618.034 68.4795 617.628 68.6286 617.262C68.7777 616.896 69.0756 616.6 69.4576 616.437C81.9216 611.402 95.3335 608.725 108.915 608.562C122.497 608.399 135.978 610.752 148.577 615.486C148.956 615.641 149.256 615.928 149.412 616.285C149.569 616.643 149.57 617.043 149.416 617.401C149.262 617.759 148.964 618.047 148.586 618.205C148.208 618.362 147.779 618.375 147.39 618.243C135.181 613.656 122.116 611.375 108.954 611.534C95.7924 611.692 82.7952 614.285 70.7161 619.164C70.53 619.241 70.33 619.284 70.1266 619.29Z" fill="black"/>
<path d="M138.469 476.753H78.8885C78.466 476.753 78.0608 476.597 77.7621 476.318C77.4633 476.039 77.2955 475.661 77.2955 475.267C77.2955 474.873 77.4633 474.495 77.7621 474.217C78.0608 473.938 78.466 473.781 78.8885 473.781H138.469C138.892 473.781 139.297 473.938 139.596 474.217C139.895 474.495 140.062 474.873 140.062 475.267C140.062 475.661 139.895 476.039 139.596 476.318C139.297 476.597 138.892 476.753 138.469 476.753Z" fill="black"/>
<path d="M123.184 611.526C122.761 611.526 122.356 611.37 122.057 611.091C121.759 610.812 121.591 610.434 121.591 610.04V475.706C121.591 475.312 121.759 474.934 122.057 474.655C122.356 474.376 122.761 474.22 123.184 474.22C123.606 474.22 124.011 474.376 124.31 474.655C124.609 474.934 124.777 475.312 124.777 475.706V610.04C124.777 610.434 124.609 610.812 124.31 611.091C124.011 611.37 123.606 611.526 123.184 611.526Z" fill="black"/>
<path d="M94.1342 611.526C93.7117 611.526 93.3065 611.37 93.0077 611.091C92.709 610.812 92.5411 610.434 92.5411 610.04V475.706C92.5411 475.312 92.709 474.934 93.0077 474.655C93.3065 474.376 93.7117 474.22 94.1342 474.22C94.5567 474.22 94.9619 474.376 95.2607 474.655C95.5594 474.934 95.7273 475.312 95.7273 475.706V610.04C95.7273 610.434 95.5594 610.812 95.2607 611.091C94.9619 611.37 94.5567 611.526 94.1342 611.526Z" fill="black"/>
</svg>
