<svg width="291" height="250" viewBox="0 0 291 250" fill="none" xmlns="http://www.w3.org/2000/svg">
<g filter="url(#filter0_d_89_54)">
<path d="M41.2401 37.0398C42.5657 34.6991 41.7447 31.7277 39.4064 30.4034L56.4756 0.263184C75.4425 11.0046 82.1014 35.1042 71.3486 54.091L35.8768 116.726C34.5512 119.067 35.372 122.038 37.7104 123.362C40.0488 124.687 43.0192 123.862 44.3448 121.522L79.8167 58.8867C90.5694 39.8999 114.662 33.2156 133.629 43.9572C152.596 54.6985 159.254 78.798 148.502 97.7848L113.03 160.42C111.704 162.761 112.526 165.732 114.864 167.056C117.202 168.38 120.173 167.556 121.498 165.216L156.97 102.581C167.723 83.5938 191.815 76.9095 210.782 87.6508C229.749 98.3926 236.408 122.492 225.655 141.479L190.183 204.114C188.858 206.455 189.678 209.426 192.017 210.75C194.355 212.074 197.326 211.25 198.652 208.91L234.124 146.275C244.876 127.288 268.969 120.604 287.935 131.345L270.866 161.485C268.528 160.161 265.557 160.985 264.232 163.326L228.76 225.961C218.007 244.947 193.915 251.632 174.948 240.891C155.98 230.149 149.322 206.049 160.075 187.063L195.546 124.427C196.872 122.087 196.052 119.116 193.713 117.791C191.374 116.467 188.404 117.291 187.078 119.632L151.606 182.267C140.854 201.253 116.761 207.938 97.7945 197.197C78.8278 186.455 72.1692 162.356 82.9218 143.369L118.394 80.7339C119.719 78.3932 118.898 75.4216 116.56 74.0975C114.221 72.7728 111.251 73.5974 109.925 75.9381L74.4535 138.573C63.7009 157.56 39.6081 164.244 20.6412 153.503C1.67427 142.761 -4.98443 118.662 5.76821 99.6749L41.2401 37.0398Z" fill="#2F6AD8"/>
<path d="M42.5453 37.779C44.0238 35.1683 43.4606 31.9558 41.3632 29.9921L57.0273 2.33293C74.2786 13.0089 80.1408 35.5222 70.0434 53.3518L34.5715 115.987C32.8385 119.047 33.9106 122.934 36.9712 124.668C40.0318 126.401 43.9169 125.321 45.65 122.261L81.1219 59.6259C91.4671 41.3586 114.645 34.9298 132.89 45.2624C151.134 55.5948 157.542 78.7784 147.197 97.0456L111.725 159.681C109.992 162.741 111.064 166.628 114.124 168.362C117.185 170.095 121.07 169.015 122.803 165.955L158.275 103.32C168.62 85.0525 191.798 78.6237 210.043 88.956C228.288 99.2888 234.695 122.472 224.35 140.74L188.878 203.375C187.145 206.435 188.217 210.322 191.278 212.056C194.338 213.789 198.224 212.709 199.957 209.649L235.429 147.014C245.526 129.184 267.848 122.633 285.877 131.936L270.212 159.595C267.45 158.807 264.405 159.976 262.926 162.586L227.455 225.222C217.109 243.489 193.932 249.918 175.687 239.585C157.442 229.253 151.035 206.069 161.38 187.802L196.852 125.167C198.585 122.106 197.513 118.219 194.452 116.486C191.392 114.753 187.506 115.832 185.773 118.892L150.301 181.528C139.956 199.795 116.778 206.224 98.5336 195.891C80.2892 185.559 73.8819 162.375 84.2271 144.108L119.699 81.473C121.432 78.4127 120.359 74.5253 117.299 72.7922C114.238 71.0586 110.353 72.1387 108.62 75.1989L73.1483 137.834C62.8032 156.101 39.6251 162.53 21.3804 152.197C3.13561 141.865 -3.2717 118.681 7.07344 100.414L42.5453 37.779Z" stroke="black" stroke-width="3"/>
</g>
<defs>
<filter id="filter0_d_89_54" x="0.626404" y="0.263184" width="290.309" height="248.754" filterUnits="userSpaceOnUse" color-interpolation-filters="sRGB">
<feFlood flood-opacity="0" result="BackgroundImageFix"/>
<feColorMatrix in="SourceAlpha" type="matrix" values="0 0 0 0 0 0 0 0 0 0 0 0 0 0 0 0 0 0 127 0" result="hardAlpha"/>
<feOffset dx="3" dy="3"/>
<feComposite in2="hardAlpha" operator="out"/>
<feColorMatrix type="matrix" values="0 0 0 0 0 0 0 0 0 0 0 0 0 0 0 0 0 0 1 0"/>
<feBlend mode="normal" in2="BackgroundImageFix" result="effect1_dropShadow_89_54"/>
<feBlend mode="normal" in="SourceGraphic" in2="effect1_dropShadow_89_54" result="shape"/>
</filter>
</defs>
</svg>
